<?xml version="1.0" standalone="no"?>
<!DOCTYPE svg PUBLIC "-//W3C//DTD SVG 20010904//EN"
 "http://www.w3.org/TR/2001/REC-SVG-20010904/DTD/svg10.dtd">
<svg version="1.0" xmlns="http://www.w3.org/2000/svg"
 width="512.000000pt" height="512.000000pt" viewBox="0 0 512.000000 512.000000"
 preserveAspectRatio="xMidYMid meet">

<g transform="translate(0.000000,512.000000) scale(0.100000,-0.100000)"
fill="#000000" stroke="none">
<path d="M2327 5110 c-121 -31 -219 -127 -259 -252 -65 -210 40 -463 279 -673
103 -90 255 -195 282 -195 24 0 169 87 256 155 95 72 215 196 215 220 0 25
-29 55 -53 55 -9 0 -49 -32 -89 -72 -76 -74 -173 -150 -270 -212 l-56 -35 -86
60 c-205 146 -340 316 -382 481 -50 192 76 378 247 366 74 -5 115 -34 169
-115 30 -46 47 -63 63 -63 31 0 41 9 66 62 71 150 255 154 371 9 37 -46 60
-57 88 -42 43 23 30 76 -35 143 -126 129 -337 145 -449 33 l-42 -43 -38 39
c-21 21 -57 48 -81 59 -51 24 -142 33 -196 20z"/>
<path d="M3135 4675 c-49 -48 -19 -119 50 -119 43 0 75 30 75 71 0 32 -42 73
-75 73 -14 0 -37 -11 -50 -25z"/>
<path d="M1005 4106 l-190 -93 -393 -646 c-311 -511 -393 -652 -390 -674 3
-24 24 -40 166 -126 125 -76 168 -98 186 -93 18 4 70 80 216 318 106 172 199
320 206 328 12 12 14 11 14 -10 1 -14 13 -144 29 -289 l28 -265 -85 -239 c-98
-276 -99 -288 -22 -297 l45 -5 5 -963 c4 -841 7 -964 20 -972 21 -13 32 -12
58 6 l22 15 0 960 0 959 224 0 c253 0 233 -6 281 83 11 20 23 37 26 37 4 0 22
-24 39 -52 18 -29 38 -56 44 -60 6 -4 109 -8 229 -8 l217 0 0 -955 c0 -942 0
-955 20 -975 11 -11 27 -20 35 -20 8 0 24 9 35 20 20 20 20 33 20 975 l0 955
40 0 c31 0 43 5 55 24 15 22 11 36 -70 262 l-86 239 26 270 c15 149 30 280 34
293 5 20 36 -25 194 -282 209 -339 221 -356 246 -356 20 0 331 184 344 203 4
7 6 21 4 32 -4 23 -759 1270 -786 1298 -9 9 -100 58 -201 107 l-184 90 -255
-1 -256 -1 -190 -92z m745 -46 c44 -22 80 -43 80 -46 0 -14 -373 -844 -379
-844 -4 1 -361 791 -379 841 -2 5 34 27 80 49 l83 39 218 1 217 0 80 -40z
m-244 -1204 c54 -46 30 -127 -42 -142 -44 -9 -94 35 -94 82 0 73 80 109 136
60z m1 -328 c30 -34 36 -63 19 -96 -41 -79 -156 -49 -156 41 0 66 93 103 137
55z"/>
<path d="M3243 4142 c-19 -12 -62 -116 -91 -222 -25 -87 -27 -110 -27 -280 0
-215 -2 -203 116 -548 l79 -234 0 -194 0 -195 -38 -57 c-117 -173 -277 -488
-355 -698 -147 -394 -227 -821 -227 -1207 0 -161 7 -182 80 -251 357 -334
1865 -336 2227 -3 74 69 83 95 83 254 0 347 -68 740 -191 1099 -98 288 -205
513 -376 784 l-53 86 0 188 0 189 85 256 c46 141 92 299 101 351 21 121 14
309 -16 429 -21 85 -73 225 -92 248 -8 10 -61 13 -219 13 -196 0 -209 -1 -219
-19 -6 -12 -10 -102 -10 -223 l0 -203 -105 -110 -105 -110 -105 110 -104 110
-1 203 c0 120 -4 211 -10 223 -10 18 -23 19 -213 19 -111 0 -207 -4 -214 -8z
m1117 -1487 l0 -145 -465 0 -465 0 0 145 0 145 465 0 465 0 0 -145z m-935
-1369 c14 -22 8 -60 -89 -561 -58 -295 -107 -539 -110 -542 -7 -7 -106 17
-106 25 1 39 211 1076 220 1087 20 24 67 19 85 -9z m509 8 c14 -14 16 -82 16
-600 l0 -584 -55 0 -55 0 0 584 c0 636 -2 616 55 616 13 0 31 -7 39 -16z m516
1 c11 -13 225 -1083 218 -1091 -8 -8 -98 -27 -103 -22 -3 3 -53 248 -111 543
-97 501 -103 539 -89 561 18 28 65 33 85 9z"/>
<path d="M4868 2899 c-14 -8 -18 -23 -18 -69 l0 -60 -53 0 c-63 0 -89 -16 -89
-55 0 -39 26 -55 89 -55 l53 0 0 -60 c0 -48 4 -61 19 -70 51 -27 81 1 81 76
l0 54 54 0 c61 0 86 16 86 55 0 34 -36 55 -92 55 l-48 0 0 53 c0 73 -34 105
-82 76z"/>
<path d="M1411 1922 c-5 -10 -51 -422 -102 -915 -91 -875 -93 -897 -74 -917
23 -25 47 -26 69 -1 14 15 28 131 81 636 35 339 65 619 67 621 2 2 32 -272 67
-609 34 -337 65 -620 67 -630 12 -39 74 -45 93 -8 14 24 -171 1804 -189 1825
-17 22 -67 20 -79 -2z"/>
<path d="M230 1161 c-5 -11 -10 -42 -10 -70 l0 -51 -54 0 c-58 0 -86 -16 -86
-50 0 -34 28 -50 86 -50 l54 0 0 -54 c0 -61 16 -86 55 -86 39 0 55 25 55 86
l0 54 54 0 c58 0 86 16 86 50 0 34 -28 50 -86 50 l-54 0 0 51 c0 69 -12 89
-55 89 -24 0 -38 -6 -45 -19z"/>
</g>
</svg>
